<?xml version="1.0" standalone="no"?>
<!DOCTYPE svg PUBLIC "-//W3C//DTD SVG 20010904//EN"
 "http://www.w3.org/TR/2001/REC-SVG-20010904/DTD/svg10.dtd">
<svg version="1.0" xmlns="http://www.w3.org/2000/svg"
 width="700.000000pt" height="700.000000pt" viewBox="0 0 700.000000 700.000000"
 preserveAspectRatio="xMidYMid meet">
<metadata>
Created by potrace 1.14, written by Peter Selinger 2001-2017
</metadata>
<g transform="translate(0.000000,700.000000) scale(0.100000,-0.100000)"
fill="#000000" stroke="none">
<path d="M96 6983 c-43 -23 -63 -44 -81 -86 -13 -32 -15 -397 -15 -3400 l0
-3363 22 -44 c17 -33 35 -51 68 -67 l44 -23 3366 0 3366 0 44 22 c33 17 51 35
68 68 l22 44 0 3366 0 3366 -22 44 c-16 31 -36 51 -67 67 l-44 23 -3371 0
c-3053 -1 -3374 -2 -3400 -17z m6570 -3482 l-1 -3166 -3162 -1 c-2241 0 -3163
3 -3165 10 -3 25 -6 6292 -2 6307 4 14 310 15 3167 15 l3163 0 0 -3165z"/>
<path d="M1193 5864 c-22 -15 -47 -38 -56 -53 -54 -91 -12 -211 85 -244 25 -9
196 -12 619 -12 657 1 635 -2 686 76 48 73 29 170 -44 226 l-36 28 -607 2
-606 3 -41 -26z"/>
<path d="M3445 5879 c-37 -10 -89 -63 -102 -104 -6 -19 -10 -837 -9 -2292 l1
-2261 30 -38 c66 -81 159 -96 233 -37 72 58 67 -54 69 1403 1 723 2 1321 2
1328 1 10 61 12 282 10 l281 -3 153 -305 c84 -168 388 -775 675 -1350 287
-575 531 -1055 543 -1067 11 -12 39 -30 63 -39 107 -41 218 35 219 150 0 48
-40 132 -638 1326 -350 701 -637 1278 -637 1282 0 4 264 9 588 10 l587 3 31
23 c16 13 39 37 50 55 18 31 19 62 21 907 3 857 3 876 -17 915 -11 22 -36 51
-57 65 l-37 25 -1150 2 c-649 1 -1164 -2 -1181 -8z m2106 -334 c4 -27 5 -1302
1 -1312 -5 -16 -1882 -16 -1883 1 -1 14 -1 1286 0 1306 1 13 112 15 941 15
620 0 940 -3 941 -10z"/>
<path d="M682 5049 c-62 -13 -113 -69 -125 -139 -2 -14 2 -46 9 -72 16 -54 57
-93 112 -107 23 -6 477 -10 1170 -9 l1133 0 41 22 c49 26 88 90 88 144 0 51
-34 113 -77 142 l-38 24 -1141 1 c-628 0 -1155 -3 -1172 -6z"/>
<path d="M1269 4219 c-91 -10 -146 -63 -157 -151 -6 -56 29 -122 83 -153 l43
-25 604 2 604 3 36 24 c102 70 94 220 -15 281 -37 21 -46 22 -590 23 -304 1
-577 -1 -608 -4z"/>
<path d="M1215 3376 c-131 -58 -137 -238 -10 -301 38 -19 62 -20 635 -19 572
0 596 0 628 19 125 75 109 258 -27 304 -52 17 -1186 15 -1226 -3z"/>
<path d="M1222 2543 c-41 -14 -75 -45 -96 -87 -13 -27 -15 -111 -16 -611 0
-380 4 -593 11 -618 13 -47 60 -94 108 -108 24 -7 235 -9 627 -7 l591 3 36 28
c74 57 71 23 72 687 0 672 3 644 -78 698 l-40 27 -590 0 c-427 0 -600 -3 -625
-12z m995 -327 c8 -8 7 -756 -2 -764 -8 -8 -764 -10 -766 -2 -1 3 -2 177 -3
387 l-1 382 60 3 c103 5 706 0 712 -6z"/>
</g>
</svg>
